<?xml version="1.0" standalone="no"?>
<!DOCTYPE svg PUBLIC "-//W3C//DTD SVG 20010904//EN"
 "http://www.w3.org/TR/2001/REC-SVG-20010904/DTD/svg10.dtd">
<svg version="1.0" xmlns="http://www.w3.org/2000/svg"
 width="392.000000pt" height="215.000000pt" viewBox="0 0 392.000000 215.000000"
 preserveAspectRatio="xMidYMid meet">

<g transform="translate(0.000000,215.000000) scale(0.100000,-0.100000)"
fill="#000000" stroke="none">
<path d="M2429 1999 c-90 -63 -99 -95 -44 -149 l35 -34 45 44 c25 25 43 50 41
57 -3 7 1 10 8 7 8 -3 17 0 22 7 5 8 3 10 -6 4 -9 -6 -11 -4 -6 4 5 7 14 10
22 7 8 -3 14 -1 14 5 0 6 5 7 12 3 7 -4 8 -3 4 4 -4 6 -14 8 -24 5 -9 -3 -14
-3 -10 1 7 9 -44 66 -59 66 -6 0 -30 -14 -54 -31z m68 6 c0 -8 -4 -12 -9 -9
-5 3 -6 10 -3 15 9 13 12 11 12 -6z"/>
<path d="M975 1696 c-134 -31 -217 -77 -325 -181 -64 -62 -407 -394 -547 -531
-59 -57 -73 -77 -73 -101 0 -27 39 -69 331 -354 187 -183 359 -344 397 -369
92 -63 184 -92 305 -98 56 -2 125 1 160 8 81 15 210 77 270 130 80 71 89 58
-248 386 -163 159 -294 294 -293 300 2 6 134 138 293 294 314 306 321 316 274
366 -41 43 -143 102 -224 129 -97 33 -231 41 -320 21z m215 -116 c62 -12 162
-55 185 -80 14 -16 12 -20 -32 -60 -27 -24 -232 -222 -456 -439 -224 -218
-412 -396 -417 -396 -14 0 -290 266 -290 280 0 7 19 30 43 50 23 21 128 122
232 224 302 296 356 345 419 376 104 51 207 66 316 45z m-64 -1046 c192 -187
261 -260 254 -269 -5 -7 -43 -27 -82 -46 -65 -30 -84 -34 -178 -37 -180 -7
-257 30 -450 215 l-115 110 145 141 c80 78 149 141 154 142 4 0 127 -115 272
-256z"/>
<path d="M1944 1489 l-38 -39 83 -84 c46 -46 82 -88 80 -94 -7 -18 -169 -164
-178 -160 -6 1 -41 33 -79 71 -63 61 -69 65 -69 42 0 -14 3 -25 7 -25 11 0
-15 -97 -31 -118 -7 -9 -22 -25 -34 -34 -11 -10 -15 -18 -9 -18 6 0 21 11 34
25 13 14 28 25 34 25 6 0 78 -68 161 -150 l151 -150 39 40 39 40 -84 85 c-58
59 -81 88 -73 93 7 5 49 43 93 87 l81 79 83 -83 c92 -91 93 -92 149 -34 l27
30 -213 206 -214 206 -39 -40z"/>
<path d="M2903 1246 c-29 -26 -55 -56 -58 -67 -4 -10 -10 -17 -15 -14 -5 3 -5
-9 0 -26 10 -35 5 -53 -12 -43 -6 4 -3 -4 8 -18 18 -24 42 -29 28 -6 -4 7 -2
8 4 4 12 -7 5 -36 -9 -36 -4 0 -13 8 -18 18 -10 16 -10 16 -11 0 0 -9 5 -20
11 -24 8 -5 6 -10 -5 -16 -9 -5 -16 -14 -16 -20 0 -10 211 187 218 204 2 4
-14 26 -35 49 l-39 41 -51 -46z"/>
<path d="M3573 1148 c-122 -122 -144 -140 -157 -129 -9 8 -16 12 -17 10 0 -2
-3 -22 -5 -44 -3 -22 -9 -42 -13 -45 -8 -5 -11 -40 -4 -40 3 0 13 5 24 11 24
12 49 -4 48 -30 0 -13 -2 -14 -6 -1 -9 22 -26 30 -40 18 -17 -14 -42 -3 -53
24 l-9 23 0 -22 c-1 -13 -7 -23 -14 -23 -19 0 -99 -85 -90 -95 5 -4 3 -5 -3
-2 -10 6 -58 -35 -51 -44 2 -2 -8 -15 -22 -29 -13 -14 -21 -18 -16 -10 7 12 6
13 -6 2 -8 -7 -14 -18 -14 -25 0 -7 -7 -12 -15 -12 -8 0 -25 -8 -38 -17 l-24
-16 25 2 c14 0 23 6 20 13 -3 7 3 10 17 6 19 -5 19 -7 5 -23 -8 -9 -12 -20 -8
-23 3 -4 1 -7 -5 -7 -7 0 -12 -5 -12 -11 0 -8 6 -7 17 2 15 12 16 12 10 -3 -4
-13 -1 -18 10 -18 15 0 14 -2 -3 -16 -14 -12 -11 -12 11 2 51 30 115 86 109
95 -3 5 -1 8 4 7 15 -5 552 521 546 535 -4 7 -23 26 -43 44 l-37 32 -141 -141z
m-386 -428 c1 -11 -2 -22 -6 -24 -6 -4 -7 26 -2 42 3 8 7 -1 8 -18z m-15 -62
c-7 -7 -13 -21 -13 -32 -1 -17 -2 -18 -6 -3 -2 9 -8 17 -13 17 -4 0 -7 -8 -5
-17 1 -10 0 -12 -2 -5 -3 6 -9 12 -14 12 -16 0 15 27 37 33 10 2 21 5 24 6 2
0 -1 -4 -8 -11z"/>
<path d="M1671 1236 c-18 -19 -30 -39 -26 -45 3 -6 11 -9 16 -5 9 5 52 84 46
84 -2 0 -18 -15 -36 -34z"/>
<path d="M2776 1121 c-3 -4 4 -7 14 -6 27 2 33 10 10 12 -11 1 -22 -2 -24 -6z"/>
<path d="M3364 1053 c11 -13 14 -23 8 -23 -11 0 -11 -26 1 -35 4 -3 5 -2 2 1
-2 4 0 14 5 24 7 13 4 22 -13 36 l-22 19 19 -22z"/>
<path d="M1423 975 c-3 -9 -3 -19 1 -22 3 -3 1 -12 -5 -20 -6 -7 -7 -13 -3
-13 5 0 15 9 22 21 10 16 10 19 1 13 -9 -5 -11 -1 -7 14 7 25 0 30 -9 7z"/>
<path d="M1705 970 c10 -11 20 -20 23 -20 3 0 -3 9 -13 20 -10 11 -20 20 -23
20 -3 0 3 -9 13 -20z"/>
<path d="M2785 979 c-4 -6 -5 -12 -2 -15 2 -3 7 2 10 11 7 17 1 20 -8 4z"/>
<path d="M3304 961 c20 -22 26 -25 26 -13 0 4 -10 13 -22 21 -23 14 -23 14 -4
-8z"/>
<path d="M3362 966 c7 -8 15 -12 17 -11 5 6 -10 25 -20 25 -5 0 -4 -6 3 -14z"/>
<path d="M1408 880 c6 -42 14 -43 33 -4 15 32 15 33 -2 23 -13 -6 -19 -6 -19
1 0 5 -4 10 -8 10 -5 0 -7 -14 -4 -30z"/>
<path d="M1909 763 c7 -13 8 -23 2 -23 -5 0 -12 6 -15 13 -3 6 -3 1 0 -12 5
-19 3 -23 -10 -18 -8 3 -18 2 -21 -3 -4 -6 0 -10 8 -10 10 0 13 -7 10 -18 -2
-10 5 -26 16 -36 19 -17 21 -17 55 10 l35 28 -21 23 c-11 12 -25 20 -31 16 -6
-3 -7 -1 -4 4 4 6 -3 19 -15 29 -21 19 -21 19 -9 -3z"/>
<path d="M2458 631 c-21 -19 -29 -33 -23 -39 6 -6 22 5 44 30 39 45 26 51 -21
9z"/>
<path d="M3080 549 c0 -5 5 -7 10 -4 6 3 10 8 10 11 0 2 -4 4 -10 4 -5 0 -10
-5 -10 -11z"/>
</g>
</svg>
